<svg xmlns="http://www.w3.org/2000/svg" xmlns:xlink="http://www.w3.org/1999/xlink" viewBox="0,0,256,256" width="48px" height="48px"><g transform=""><g fill="none" fill-rule="nonzero" stroke="none" stroke-width="1" stroke-linecap="butt" stroke-linejoin="miter" stroke-miterlimit="10" stroke-dasharray="" stroke-dashoffset="0" font-family="none" font-weight="none" font-size="none" text-anchor="none" style="mix-blend-mode: normal"><g transform="scale(5.33333,5.33333)"><path d="M35.604,6h-23.208c-3.532,0 -6.396,2.864 -6.396,6.396v23.208c0,3.532 2.864,6.396 6.396,6.396h23.208c3.532,0 6.396,-2.864 6.396,-6.396v-23.208c0,-3.532 -2.864,-6.396 -6.396,-6.396zM35.5,39c-1.933,0 -3.5,-1.567 -3.5,-3.5c0,-1.933 1.567,-3.5 3.5,-3.5c1.933,0 3.5,1.567 3.5,3.5c0,1.933 -1.567,3.5 -3.5,3.5z" fill="#ffffff"></path><path d="M10.5,21c-0.384,0 -0.768,-0.146 -1.061,-0.439c-0.586,-0.585 -0.586,-1.536 0,-2.121l9,-9c0.586,-0.586 1.535,-0.586 2.121,0c0.586,0.585 0.586,1.536 0,2.121l-9,9c-0.292,0.293 -0.676,0.439 -1.06,0.439z" fill="#4caf50"></path><path d="M10.5,30c-0.384,0 -0.768,-0.146 -1.061,-0.439c-0.586,-0.586 -0.586,-1.535 0,-2.121l18.021,-18.022c0.586,-0.586 1.535,-0.586 2.121,0c0.586,0.585 0.586,1.536 0,2.121l-18.02,18.022c-0.293,0.293 -0.677,0.439 -1.061,0.439z" fill="#ffca28"></path><path d="M10.5,39c-0.384,0 -0.768,-0.146 -1.061,-0.439c-0.586,-0.586 -0.586,-1.535 0,-2.121l26.98,-26.98c0.586,-0.586 1.535,-0.586 2.121,0c0.586,0.585 0.586,1.536 0,2.121l-26.979,26.98c-0.293,0.293 -0.677,0.439 -1.061,0.439z" fill="#ff9800"></path><path d="M19.5,39c-0.384,0 -0.768,-0.146 -1.061,-0.439c-0.586,-0.586 -0.586,-1.535 0,-2.121l18,-18c0.586,-0.586 1.535,-0.586 2.121,0c0.586,0.585 0.586,1.536 0,2.121l-18,18c-0.292,0.293 -0.676,0.439 -1.06,0.439z" fill="#e64a19"></path></g></g></g></svg>